<svg xmlns="http://www.w3.org/2000/svg" viewBox="0 0 128 128" role="img" aria-label="Linux Log Guardian">
  <defs>
    <linearGradient id="flame" x1="32" y1="88" x2="96" y2="24" gradientUnits="userSpaceOnUse">
      <stop offset="0%" stop-color="#f59e0b"/>
      <stop offset="45%" stop-color="#f97316"/>
      <stop offset="100%" stop-color="#0891b2"/>
    </linearGradient>
    <linearGradient id="wing" x1="16" y1="64" x2="112" y2="64" gradientUnits="userSpaceOnUse">
      <stop offset="0%" stop-color="#06b6d4"/>
      <stop offset="100%" stop-color="#0e7490"/>
    </linearGradient>
    <radialGradient id="glow" cx="64" cy="72" r="48" gradientUnits="userSpaceOnUse">
      <stop offset="0%" stop-color="#0891b2" stop-opacity="0.35"/>
      <stop offset="100%" stop-color="#0891b2" stop-opacity="0"/>
    </radialGradient>
  </defs>
  <circle cx="64" cy="64" r="60" fill="#0b1220" stroke="#1e3a4a" stroke-width="2"/>
  <circle cx="64" cy="64" r="52" fill="url(#glow)"/>
  <!-- tail flames -->
  <path fill="url(#flame)" d="M64 108c-8 0-14-6-16-14-2 10-10 18-20 20 6-14 4-28-2-38 4 8 10 14 18 16 4-12 12-20 20-20z"/>
  <!-- wings -->
  <path fill="url(#wing)" opacity="0.95" d="M64 52 20 78c6-18 18-32 36-38l8 12z"/>
  <path fill="url(#wing)" opacity="0.95" d="M64 52 108 78c-6-18-18-32-36-38l-8 12z"/>
  <path fill="#164e63" opacity="0.6" d="M64 54 28 72c4-10 14-18 28-20l8 2z"/>
  <path fill="#164e63" opacity="0.6" d="M64 54 100 72c-4-10-14-18-28-20l-8 2z"/>
  <!-- body & head -->
  <ellipse cx="64" cy="58" rx="10" ry="14" fill="#0e7490"/>
  <circle cx="64" cy="42" r="9" fill="#06b6d4"/>
  <circle cx="61" cy="41" r="2" fill="#e0f2fe"/>
  <circle cx="67" cy="41" r="2" fill="#e0f2fe"/>
  <path fill="#f59e0b" d="M64 34c-2-4-6-6-10-5 3 1 5 3 6 6 1-3 3-5 6-6-4-1-8 1-10 5 2-1 4-1 6 0z"/>
  <!-- crest -->
  <path fill="url(#flame)" d="M64 28c0-6 4-10 8-12-2 4-2 8 0 12-4-2-8-2-12 0 2-4 2-8 0-12 4 2 8 2 12z"/>
</svg>
