<svg xmlns="http://www.w3.org/2000/svg" viewBox="0 0 320 200" aria-hidden="true">
  <g class="lg-phoenix-svg-inner" fill="#120808">
    <path class="lg-phoenix-tail" d="M98 108c-38 8-62 28-72 52 22-6 42-18 58-32M104 114c-32 14-54 36-64 58 18-10 36-22 50-36M110 118c-26 18-42 42-48 64 14-12 28-24 38-38"/>
    <ellipse class="lg-phoenix-body" cx="138" cy="98" rx="26" ry="36" transform="rotate(-12 138 98)"/>
    <path class="lg-phoenix-neck" d="M152 78c12-8 22-6 28 2 4 6 2 14-4 18"/>
    <circle class="lg-phoenix-head" cx="168" cy="72" r="13"/>
    <path class="lg-phoenix-beak" d="M178 69l16 4-16 5z"/>
    <g class="lg-phoenix-wing lg-phoenix-wing-up" transform-origin="130 92">
      <path d="M128 90C72 38 28 48 12 88c28-8 58-4 88 6 18 6 22 0 28-4z"/>
      <path d="M124 86C84 52 48 58 36 82c18-2 38 0 56 6z" opacity=".55"/>
    </g>
    <g class="lg-phoenix-wing lg-phoenix-wing-lo" transform-origin="132 102">
      <path d="M132 104C78 138 34 158 18 188c32-18 62-36 88-58 12-10 18-16 26-26z"/>
      <path d="M136 108C96 132 62 152 48 172c22-12 44-26 64-42z" opacity=".5"/>
    </g>
    <path class="lg-phoenix-crest" d="M162 68c4-10 10-14 18-12 6 2 8 10 4 16M156 66c3-8 8-11 14-10"/>
  </g>
</svg>
